<?xml version="1.0" standalone="no"?>
<!DOCTYPE svg PUBLIC "-//W3C//DTD SVG 20010904//EN"
 "http://www.w3.org/TR/2001/REC-SVG-20010904/DTD/svg10.dtd">
<svg version="1.0" xmlns="http://www.w3.org/2000/svg"
 width="1024.000000pt" height="1024.000000pt" viewBox="0 0 1024.000000 1024.000000"
 preserveAspectRatio="xMidYMid meet">

<g transform="translate(0.000000,1024.000000) scale(0.100000,-0.100000)"
fill="#000000" stroke="none">
<path d="M5972 8373 l3 -428 473 -3 472 -2 0 430 0 430 -475 0 -475 0 2 -427z
m821 290 c4 -58 7 -235 7 -393 0 -222 -3 -289 -12 -291 -7 -2 -187 -3 -400 -1
l-388 3 0 388 c0 213 3 391 7 394 3 4 180 7 393 7 l387 0 6 -107z"/>
<path d="M4501 8084 c-18 -15 -33 -39 -37 -59 -4 -25 -14 -37 -37 -46 -40 -17
-104 -74 -123 -110 -22 -44 -17 -127 16 -234 17 -54 30 -103 30 -110 0 -7 11
-16 24 -19 13 -3 31 -17 40 -31 16 -24 49 -33 72 -17 24 16 46 77 57 165 l13
92 44 25 c38 21 58 25 125 24 73 0 88 -4 165 -41 91 -44 215 -83 265 -83 17 0
39 -6 48 -12 25 -20 48 -168 38 -246 l-7 -62 32 31 c56 55 79 155 49 213 -8
15 -15 30 -15 31 0 2 15 6 34 9 66 13 89 76 31 86 l-30 5 37 23 c61 38 137
151 138 206 0 15 -9 10 -45 -23 -56 -52 -75 -53 -75 -5 0 28 -8 44 -34 70 -41
41 -73 43 -123 10 l-36 -25 34 -9 c29 -7 34 -13 32 -37 -3 -36 -13 -44 -27
-21 -38 64 -57 83 -111 113 -71 39 -116 53 -205 63 -95 10 -309 -6 -375 -28
-61 -21 -70 -13 -34 32 12 15 30 26 45 26 14 0 22 4 19 10 -11 18 -42 11 -74
-16z"/>
<path d="M5638 7859 c-18 -15 -20 -35 -78 -939 -11 -173 -23 -354 -26 -401 -7
-99 -1 -127 30 -139 12 -4 327 -14 700 -21 l677 -13 77 -68 c74 -65 79 -68
130 -68 57 0 61 5 32 42 l-19 25 27 30 27 30 250 -9 c138 -4 358 -12 490 -16
253 -9 276 -6 289 35 6 19 114 1300 118 1394 1 33 -3 63 -10 71 -13 16 -102
18 -1587 38 -390 5 -800 12 -910 16 -160 5 -203 3 -217 -7z m300 -206 c4 -26
-10 -28 -130 -16 -58 5 -68 9 -68 25 0 17 8 19 98 16 92 -3 97 -4 100 -25z
m-88 -78 c0 -12 -13 -15 -60 -15 -47 0 -60 3 -60 15 0 12 13 15 60 15 47 0 60
-3 60 -15z m475 -10 c0 -18 -6 -20 -70 -17 -38 2 -72 6 -74 8 -2 2 -1 10 3 19
5 13 19 15 73 13 60 -3 68 -5 68 -23z m312 15 c130 0 155 -2 160 -16 3 -8 2
-19 -3 -24 -6 -6 -92 -7 -207 -3 l-197 6 0 25 c0 24 2 24 46 18 26 -3 116 -6
201 -6z m-777 -90 c0 -18 -7 -20 -65 -20 -58 0 -65 2 -65 20 0 18 7 20 65 20
58 0 65 -2 65 -20z m275 8 c3 -3 3 -13 -1 -22 -5 -13 -21 -16 -85 -16 -79 0
-79 0 -79 26 l0 27 80 -5 c44 -3 82 -7 85 -10z m268 -4 c66 -6 77 -10 77 -25
0 -17 -9 -19 -79 -19 -118 0 -201 11 -201 26 0 21 80 28 203 18z m1209 -59
c44 -134 133 -615 164 -887 l7 -59 -94 7 c-52 4 -95 7 -96 8 -1 1 -7 53 -13
116 -6 63 -13 117 -16 120 -8 8 -328 17 -337 9 -5 -4 -28 -58 -52 -120 l-44
-114 -88 4 c-48 2 -90 5 -92 7 -8 8 291 708 371 867 l49 98 112 -3 112 -3 17
-50z m534 -43 c-3 -31 -17 -191 -32 -354 -14 -164 -30 -355 -37 -425 l-12
-128 -35 -3 c-19 -2 -59 -1 -89 3 l-53 7 5 41 c3 23 22 227 42 452 20 226 38
424 41 440 l4 30 86 -3 86 -4 -6 -56z m-2138 13 c6 -3 12 -11 12 -20 0 -13
-22 -15 -155 -15 -144 0 -155 1 -155 18 0 10 2 21 4 23 6 5 276 0 294 -6z
m373 5 c62 0 69 -2 69 -20 0 -19 -7 -20 -99 -20 -128 0 -161 7 -161 33 0 18 4
19 61 13 34 -3 93 -6 130 -6z m389 -10 c9 -16 8 -22 -5 -27 -19 -7 -233 2
-242 10 -3 4 -3 13 0 22 5 12 27 15 121 15 105 0 116 -2 126 -20z m200 -10 c0
-18 -7 -20 -70 -20 -63 0 -70 2 -70 20 0 18 7 20 70 20 63 0 70 -2 70 -20z
m-351 -59 c8 -5 11 -16 8 -25 -5 -12 -20 -16 -57 -16 -42 0 -50 3 -50 18 0 10
3 22 7 25 9 10 76 8 92 -2z m-791 -33 c-2 -13 -6 -22 -10 -20 -5 1 -30 2 -58
2 -43 0 -50 3 -50 20 0 18 7 20 61 20 57 0 60 -1 57 -22z m381 6 c22 -5 31
-12 31 -27 0 -19 -4 -20 -181 -15 -174 5 -210 12 -195 37 8 12 290 16 345 5z
m-60 -100 c51 -6 61 -10 61 -26 0 -17 -8 -18 -117 -16 -114 3 -118 4 -121 26
-3 21 0 22 56 22 32 0 87 -3 121 -6z m317 -16 c3 -4 4 -14 0 -23 -5 -13 -22
-15 -108 -13 -100 3 -103 4 -106 27 l-4 23 106 -4 c57 -2 108 -7 112 -10z
m-658 -74 c13 -4 22 -14 22 -25 0 -17 -8 -19 -65 -19 -63 0 -65 1 -65 25 0 23
4 25 43 25 23 0 52 -3 65 -6z m376 -11 c63 -5 79 -10 88 -26 10 -20 7 -20
-191 -15 -111 3 -204 7 -206 10 -3 3 -3 13 1 22 5 13 24 16 119 16 61 0 147
-3 189 -7z m363 -13 c46 0 53 -2 53 -20 0 -18 -7 -20 -77 -20 -43 0 -108 3
-145 7 -59 5 -68 8 -68 26 0 19 4 20 92 13 50 -3 115 -6 145 -6z m401 -28 l3
-23 -123 3 c-119 3 -123 4 -126 26 l-3 23 123 -3 c119 -3 123 -4 126 -26z
m-1145 -52 c5 -18 0 -20 -49 -20 -47 0 -54 2 -54 20 0 17 7 20 49 20 40 0 50
-3 54 -20z m266 -6 c2 -2 1 -10 -2 -19 -5 -11 -21 -15 -56 -15 -52 0 -67 10
-57 36 5 13 16 15 59 9 28 -4 54 -9 56 -11z m471 -20 l0 -25 -177 7 c-98 4
-180 8 -182 10 -2 2 -1 10 2 19 5 13 33 15 182 15 l175 0 0 -26z m294 10 c30
-4 46 -12 46 -21 0 -11 -26 -13 -142 -11 -127 3 -143 5 -146 21 -3 15 7 17 96
17 55 0 120 -3 146 -6z m-1024 -74 c0 -18 -7 -20 -60 -20 -53 0 -60 2 -60 20
0 18 7 20 60 20 53 0 60 -2 60 -20z m658 0 c26 0 32 -4 32 -20 0 -20 -5 -21
-82 -18 -79 3 -83 4 -86 27 -4 23 -2 24 50 18 29 -4 68 -7 86 -7z m482 -36 l0
-25 -82 7 c-92 7 -98 9 -98 30 0 11 18 14 90 14 90 0 90 0 90 -26z m-967 -40
c234 -6 238 -7 235 -27 -3 -21 -7 -21 -193 -19 -270 3 -345 10 -345 32 0 24
11 31 40 26 14 -3 132 -8 263 -12z m735 -80 c12 -8 22 -21 22 -28 0 -20 -122
-116 -147 -116 -16 0 -23 -6 -23 -20 0 -30 -16 -24 -30 10 -24 57 10 132 72
164 35 17 68 14 106 -10z m-890 -21 c3 -20 -1 -23 -35 -23 -74 0 -113 11 -113
32 0 17 7 19 73 16 66 -3 72 -5 75 -25z m320 -12 l4 -24 -99 6 c-54 4 -115 7
-135 7 -31 0 -38 4 -38 20 0 20 5 20 133 18 131 -3 132 -3 135 -27z m-318 -71
c0 -18 -7 -20 -80 -20 -73 0 -80 2 -80 20 0 18 7 20 80 20 73 0 80 -2 80 -20z
m100 0 c0 -16 -7 -20 -30 -20 -18 0 -30 5 -30 13 0 19 5 22 34 25 20 1 26 -3
26 -18z m270 -16 c0 -20 -4 -25 -16 -20 -9 3 -38 6 -65 6 -42 0 -49 3 -49 20
0 18 7 20 65 20 63 0 65 -1 65 -26z m595 -14 c10 -11 16 -20 13 -20 -3 0 -13
9 -23 20 -10 11 -16 20 -13 20 3 0 13 -9 23 -20z m-757 -50 c35 0 42 -3 42
-20 0 -19 -7 -20 -140 -20 l-140 0 0 27 0 26 98 -6 c53 -4 116 -7 140 -7z
m875 -72 c23 -24 82 -81 130 -127 48 -46 85 -86 82 -89 -5 -6 -34 19 -173 153
-67 64 -101 105 -87 105 3 0 24 -19 48 -42z"/>
<path d="M5820 7488 c0 -4 4 -8 9 -8 6 0 12 4 15 8 3 5 -1 9 -9 9 -8 0 -15 -4
-15 -9z"/>
<path d="M7457 7299 c-3 -8 -41 -98 -85 -200 l-79 -187 51 -6 c28 -3 86 -6
129 -6 l77 0 -6 43 c-13 88 -65 340 -73 354 -6 12 -9 13 -14 2z"/>
<path d="M4669 7559 c-31 -31 -19 -43 47 -50 32 -4 75 -10 96 -14 31 -6 38 -4
48 15 17 31 -5 51 -67 61 -77 13 -102 10 -124 -12z"/>
<path d="M5058 7493 c-19 -5 -32 -33 -21 -44 4 -4 37 -19 73 -33 36 -15 70
-30 77 -32 18 -8 28 43 12 62 -26 31 -101 56 -141 47z"/>
<path d="M4665 7438 c-11 -6 -32 -21 -46 -35 l-26 -24 -81 22 c-45 12 -84 20
-86 18 -2 -2 -1 -22 2 -43 l5 -39 17 23 c17 23 18 23 71 8 l54 -15 -3 -56 c-3
-42 1 -68 17 -100 50 -103 196 -118 261 -26 64 89 38 218 -52 265 -32 17 -105
18 -133 2z m125 -21 c85 -43 94 -193 15 -255 -60 -47 -147 -32 -186 32 -25 40
-25 120 -1 165 32 60 114 88 172 58z"/>
<path d="M4722 7338 c-16 -16 -15 -43 3 -58 21 -18 47 5 43 39 -3 29 -27 38
-46 19z"/>
<path d="M5005 7356 c-59 -26 -94 -91 -95 -179 -1 -115 92 -182 196 -142 46
17 94 72 94 107 0 9 9 22 20 28 23 12 27 30 6 30 -8 0 -16 14 -20 33 -18 93
-123 158 -201 123z m136 -52 c71 -68 51 -203 -36 -240 -116 -48 -198 40 -165
176 17 72 57 104 123 97 35 -3 56 -12 78 -33z"/>
<path d="M5007 7274 c-13 -13 -7 -52 9 -58 22 -9 46 13 42 38 -3 21 -37 34
-51 20z"/>
<path d="M4403 7110 c0 -30 2 -43 4 -27 2 15 2 39 0 55 -2 15 -4 2 -4 -28z"/>
<path d="M4697 7013 c-14 -13 -6 -79 13 -110 22 -37 53 -59 95 -68 21 -4 15 1
-21 18 -49 24 -60 38 -79 104 -12 43 5 44 80 5 65 -34 79 -38 117 -32 39 7 40
8 10 9 -34 1 -150 43 -188 68 -11 7 -24 10 -27 6z"/>
<path d="M3305 6329 c-154 -8 -312 -31 -390 -56 -76 -24 -204 -91 -260 -135
-105 -82 -193 -214 -234 -353 -56 -189 -53 -509 9 -825 11 -58 20 -108 20
-112 0 -5 -64 -8 -143 -8 -98 0 -147 -4 -155 -12 -7 -7 -12 -30 -12 -53 0 -23
5 -46 12 -53 8 -8 60 -12 169 -12 l157 0 7 -32 c4 -18 29 -125 56 -237 27
-112 49 -207 49 -211 0 -3 -31 -28 -70 -54 -220 -150 -342 -421 -286 -630 13
-45 15 -70 8 -83 -21 -40 -51 -147 -58 -206 -4 -34 -4 -60 -2 -57 3 3 17 51
32 108 32 127 51 166 74 157 51 -21 94 -27 157 -21 l70 6 -60 -33 c-194 -105
-277 -220 -278 -382 0 -70 25 -153 52 -169 6 -4 9 -11 7 -15 -3 -4 28 -6 67
-5 72 2 145 22 222 62 39 19 62 24 58 10 -1 -3 -16 -77 -32 -163 -16 -86 -31
-159 -34 -162 -5 -4 -359 -11 -684 -12 l-113 -1 0 -61 c0 -34 6 -73 14 -87 8
-15 31 -154 51 -317 20 -159 40 -308 44 -330 l7 -40 261 -3 261 -2 -2 -33 c-1
-28 2 -32 23 -32 18 0 27 8 34 30 6 17 16 33 22 37 7 4 16 29 19 55 24 165
130 759 138 764 5 3 6 12 3 20 -3 8 13 106 34 218 36 186 42 206 70 240 18 20
51 62 74 93 43 59 57 69 57 43 0 -28 41 -97 86 -145 l43 -46 -19 -80 c-10 -43
-71 -315 -134 -604 -64 -289 -121 -546 -127 -573 -13 -56 -7 -77 21 -77 27 0
33 17 75 210 20 91 84 376 142 633 101 443 108 468 128 463 11 -3 244 -6 518
-6 l497 0 0 -420 c0 -328 -3 -421 -12 -424 -7 -2 -87 -13 -178 -24 -173 -22
-328 -57 -395 -88 -30 -15 -41 -26 -43 -47 -2 -15 -9 -27 -17 -27 -26 0 -65
-59 -65 -99 0 -70 77 -106 131 -62 21 17 24 28 24 85 l0 66 77 0 77 0 -11 -30
c-33 -96 61 -178 136 -119 23 18 26 27 26 85 l0 64 123 0 122 0 -3 -50 c-4
-44 -1 -53 26 -80 32 -32 76 -39 113 -20 30 17 52 68 46 112 l-5 38 139 0 139
0 -10 -26 c-29 -77 10 -152 73 -140 54 11 72 38 72 106 l-1 60 76 0 76 0 -4
-59 c-4 -54 -2 -62 21 -85 53 -53 137 -13 137 65 0 31 -27 77 -50 84 -11 3
-20 14 -20 24 0 10 -6 23 -12 29 -39 31 -331 99 -532 123 l-96 12 0 424 0 423
410 0 c226 0 413 1 417 3 4 1 44 -162 89 -363 119 -529 101 -471 157 -500 53
-28 67 -21 67 33 0 25 8 32 74 62 141 65 222 88 324 89 107 1 107 1 116 -85 7
-55 8 -58 27 -48 29 15 59 92 59 149 0 40 -19 170 -99 658 -6 42 -6 51 4 40
14 -16 177 -402 290 -688 l82 -205 33 3 c18 1 63 16 100 32 80 35 77 35 83 12
4 -13 5 -12 6 4 0 12 9 25 19 29 51 20 315 115 362 130 30 10 61 22 67 27 15
12 17 2 -58 268 l-58 206 78 269 77 270 194 -4 c107 -1 196 -4 196 -5 1 0 32
-199 69 -441 36 -242 86 -567 111 -722 24 -156 44 -294 44 -308 0 -21 -9 -29
-45 -45 -91 -39 -270 -70 -405 -70 -49 0 -51 1 -45 23 17 56 56 128 91 167 37
40 37 43 19 56 -35 25 -71 13 -120 -41 -25 -28 -34 -32 -53 -24 -19 7 -21 12
-13 28 6 10 24 30 40 44 17 14 27 27 24 30 -10 10 -62 -22 -84 -52 -19 -26
-24 -28 -50 -19 -16 5 -31 14 -34 19 -3 4 12 26 35 49 26 26 35 40 24 40 -16
0 -74 -55 -74 -71 0 -12 -24 -11 -55 3 -34 15 -32 30 15 79 22 23 38 44 35 47
-6 6 -91 -79 -96 -97 -4 -11 -13 -12 -44 -5 -47 11 -57 39 -29 82 14 23 11 21
-22 -9 -46 -43 -57 -46 -194 -55 -58 -3 -107 -8 -110 -11 -8 -7 -13 -141 -6
-177 6 -29 16 -40 60 -65 29 -17 77 -56 106 -87 l53 -56 276 16 c387 23 560
42 645 70 39 14 72 23 74 21 1 -1 6 -22 10 -45 9 -51 34 -73 57 -50 13 14 9
51 -35 345 -28 182 -69 449 -90 595 -22 146 -56 366 -75 490 -19 124 -35 231
-35 238 0 16 77 16 83 0 4 -10 6 -10 6 0 1 8 21 12 65 12 l64 0 7 -32 c3 -18
10 -53 16 -78 5 -25 21 -108 35 -185 15 -77 30 -158 35 -180 18 -88 21 -85
-87 -85 l-96 0 6 -27 c15 -71 77 -479 100 -663 15 -113 30 -218 34 -235 l8
-30 101 -3 101 -3 7 -57 c8 -73 16 -86 45 -77 21 7 22 11 16 71 l-7 64 293 0
293 0 18 138 c9 75 35 277 57 447 22 171 40 325 40 343 l0 32 -87 1 c-49 1
-117 4 -153 8 -36 3 -108 3 -160 0 -52 -4 -131 -4 -175 -1 l-81 5 -24 90 c-29
107 -111 262 -176 333 -45 50 -45 30 1 -31 66 -89 182 -371 161 -392 -10 -10
-144 -15 -149 -6 -3 5 -8 34 -11 66 -7 59 -62 409 -72 460 -6 27 -6 27 45 27
48 0 52 -2 65 -32 8 -18 15 -27 15 -20 1 7 -4 22 -9 33 -10 18 -7 19 40 19 69
0 90 22 90 95 l0 55 -138 0 -139 0 -27 145 c-16 79 -26 150 -23 157 4 9 6 7 6
-4 1 -16 101 -96 171 -136 19 -11 56 -24 82 -27 54 -8 45 11 98 -198 19 -74
29 -102 33 -87 3 13 -8 80 -24 149 l-30 127 29 32 c46 49 69 106 91 222 29
157 41 274 41 405 0 142 -18 218 -65 272 -31 37 -35 38 -96 38 -88 0 -161 -37
-256 -130 -91 -90 -123 -155 -132 -269 -5 -63 -8 -74 -14 -51 -10 40 -87 535
-87 558 0 16 18 17 233 17 267 0 277 3 277 70 0 66 -11 70 -185 70 -152 0
-154 0 -157 23 -3 19 -10 22 -55 25 l-53 3 0 362 c0 355 0 363 21 380 20 18
22 17 87 -39 l66 -56 18 22 c10 12 15 28 10 35 -4 7 -41 43 -82 81 -41 37 -83
80 -92 95 -22 36 -61 61 -81 53 -11 -4 -50 27 -126 100 -60 58 -114 106 -120
106 -6 0 -11 -10 -11 -22 0 -15 35 -57 105 -128 100 -100 105 -108 96 -133
-15 -39 -2 -85 30 -110 l29 -21 0 -363 0 -363 -140 0 -140 0 -10 -25 -10 -25
-1017 0 c-560 0 -1423 -2 -1918 -3 -495 -1 -924 0 -952 3 -91 10 -142 82 -143
201 0 75 22 167 104 429 l54 175 -33 30 -33 30 97 245 c54 135 109 272 123
305 15 33 26 60 25 61 -12 8 -109 9 -222 3z m4112 -1619 c17 0 18 -5 63 -305
75 -494 110 -709 128 -805 11 -52 17 -98 15 -102 -2 -5 -53 -8 -112 -8 l-107
0 -23 153 c-37 241 -90 565 -107 647 -17 84 -15 106 23 292 28 135 33 142 88
132 11 -2 25 -4 32 -4z m-2512 -54 c4 -30 5 -60 3 -67 -3 -8 -72 -13 -258 -15
-323 -4 -423 -14 -697 -69 -203 -41 -233 -45 -372 -45 -142 0 -151 1 -176 23
-33 28 -42 89 -25 170 l11 57 754 0 754 0 6 -54z m2252 -66 c12 -63 22 -145
21 -181 0 -37 2 -71 6 -77 4 -6 -9 -60 -28 -119 -30 -95 -166 -565 -196 -680
l-11 -43 -99 0 -100 0 0 -70 0 -70 70 0 c50 0 70 -4 70 -13 0 -11 -24 -95 -89
-314 -12 -40 -26 -73 -31 -73 -6 0 -10 5 -10 12 0 7 -49 170 -109 363 -60 192
-142 454 -181 580 -101 329 -112 355 -171 410 -97 91 -245 134 -529 156 -118
9 -161 16 -180 29 -56 40 -229 70 -398 70 -63 0 -82 3 -79 13 3 6 11 38 18 70
l13 57 995 -2 996 -3 22 -115z m92 -630 c33 -168 81 -437 81 -457 0 -10 -36
-13 -155 -13 -85 0 -155 3 -155 8 0 41 186 631 196 619 1 -1 16 -72 33 -157z
m852 46 c-63 -156 -108 -236 -134 -236 -8 0 -8 3 -2 8 10 7 85 162 136 282 35
83 35 34 0 -54z m-484 62 c-3 -7 -5 -2 -5 12 0 14 2 19 5 13 2 -7 2 -19 0 -25z
m10 -60 c-3 -8 -6 -5 -6 6 -1 11 2 17 5 13 3 -3 4 -12 1 -19z m111 -18 c27
-16 65 -36 85 -45 56 -23 44 -38 -13 -16 -63 24 -140 69 -140 81 0 17 18 11
68 -20z m-101 -42 c-3 -8 -6 -5 -6 6 -1 11 2 17 5 13 3 -3 4 -12 1 -19z m10
-60 c-3 -8 -6 -5 -6 6 -1 11 2 17 5 13 3 -3 4 -12 1 -19z m10 -60 c-3 -7 -5
-2 -5 12 0 14 2 19 5 13 2 -7 2 -19 0 -25z m253 22 c0 -5 -2 -10 -4 -10 -3 0
-8 5 -11 10 -3 6 -1 10 4 10 6 0 11 -4 11 -10z m28 -144 c-3 -15 -5 -16 -23
-2 -17 13 -18 17 -5 25 18 12 33 -1 28 -23z m-5315 -536 c-3 -12 -8 -19 -11
-16 -5 6 5 36 12 36 2 0 2 -9 -1 -20z"/>
<path d="M4981 5754 c0 -11 3 -14 6 -6 3 7 2 16 -1 19 -3 4 -6 -2 -5 -13z"/>
<path d="M4956 5423 c-3 -3 -6 -57 -6 -119 l0 -114 43 -21 c23 -12 72 -51 110
-87 37 -36 69 -63 71 -61 2 2 9 28 15 57 13 62 15 59 -109 207 -41 50 -85 102
-96 117 -12 15 -24 24 -28 21z"/>
<path d="M4553 5108 c-34 -38 -45 -68 -46 -127 0 -81 8 -101 44 -101 28 0 29
1 15 23 -35 54 -28 146 15 201 26 33 2 37 -28 4z"/>
<path d="M4738 4956 c-52 -19 -88 -44 -88 -61 0 -13 25 -15 157 -15 l156 0
-24 26 c-55 59 -127 77 -201 50z"/>
<path d="M5136 4912 c-4 -13 -5 -26 -2 -29 10 -11 18 4 14 29 l-4 23 -8 -23z"/>
<path d="M1526 4660 c-81 -26 -131 -127 -143 -290 -21 -308 191 -627 431 -647
34 -3 67 -10 74 -16 8 -6 12 -6 12 3 0 7 16 31 36 52 50 56 104 173 117 257
33 216 -121 510 -317 606 -76 37 -159 51 -210 35z m52 -75 c-3 -3 -9 2 -12 12
-6 14 -5 15 5 6 7 -7 10 -15 7 -18z m292 -300 c-14 -47 -68 -145 -80 -145 -5
0 -10 -8 -12 -17 -3 -15 -5 -14 -10 5 -3 12 -3 20 2 17 10 -6 66 118 79 175 6
25 11 61 11 81 0 20 3 39 8 43 12 13 14 -117 2 -159z m-305 -16 c68 -48 145
-92 145 -82 0 4 5 0 11 -10 18 -31 5 -29 -67 9 -90 47 -149 91 -207 153 -66
71 -59 85 11 20 31 -30 80 -70 107 -90z m83 -230 c129 -41 144 -47 137 -58
-11 -18 -245 59 -245 80 0 13 1 12 108 -22z m106 -199 c77 -22 116 -47 56 -35
-55 10 -129 36 -135 46 -9 13 1 12 79 -11z m146 -66 c0 -8 5 -14 12 -14 9 0 9
-3 0 -12 -14 -14 -17 -11 -26 25 -4 19 -3 26 4 22 5 -3 10 -13 10 -21z"/>
<path d="M8696 4155 c-138 -35 -305 -144 -405 -265 -64 -77 -87 -116 -102
-173 -15 -61 1 -115 48 -165 18 -19 30 -39 27 -44 -4 -6 1 -8 12 -5 11 4 33 9
49 13 68 16 200 94 312 185 45 37 116 91 158 119 41 29 75 56 75 60 0 4 85 7
188 6 197 -1 222 4 222 44 0 31 -60 108 -114 145 -90 62 -174 87 -301 91 -75
2 -129 -1 -169 -11z"/>
<path d="M1184 3780 c-58 -12 -138 -54 -163 -86 -37 -47 -46 -97 -33 -176 14
-78 76 -223 92 -213 5 3 8 0 5 -7 -7 -18 78 -118 150 -176 81 -63 203 -126
300 -153 62 -17 93 -20 149 -15 39 4 83 7 98 8 34 1 30 11 -45 118 -33 47 -52
78 -42 70 17 -14 18 -11 11 70 -4 47 -9 103 -13 125 -4 30 -3 37 6 29 14 -13
41 -163 41 -231 0 -29 4 -53 10 -53 5 0 9 -6 7 -12 -1 -7 4 -12 10 -11 7 2 12
-1 10 -6 -1 -5 3 -9 8 -9 6 0 9 4 8 9 -2 5 2 9 7 9 6 0 10 9 10 20 0 11 4 20
9 20 6 0 8 9 6 20 -2 11 0 22 5 25 5 3 9 -15 8 -40 0 -25 -3 -43 -6 -41 -9 10
-31 -28 -32 -53 0 -42 28 -4 50 66 37 120 17 265 -57 406 -45 86 -145 190
-220 230 -106 56 -270 80 -389 57z m190 -67 c29 -78 61 -197 71 -262 6 -43 5
-44 -12 -28 -10 9 -19 27 -20 39 -4 40 -51 211 -72 262 -25 57 -25 56 -7 56 8
0 25 -28 40 -67z m-339 -61 c-3 -3 -11 0 -18 7 -9 10 -8 11 6 5 10 -3 15 -9
12 -12z m95 -2 c22 -11 40 -23 40 -25 0 -5 -79 32 -89 41 -11 10 14 2 49 -16z
m479 -47 c15 -45 27 -249 17 -288 -13 -53 -24 -9 -30 125 -3 74 -8 150 -12
168 -9 44 10 41 25 -5z m-439 -13 c8 -5 11 -10 5 -10 -5 0 -21 10 -35 21 -24
20 -5 13 30 -11z m56 -1 c3 -6 -5 -3 -20 6 -14 10 -26 19 -26 22 0 7 39 -17
46 -28z m83 -179 c117 -31 129 -35 118 -46 -9 -10 -230 50 -235 64 -5 15 -16
17 117 -18z m231 -87 l75 -78 -77 75 c-72 69 -83 80 -75 80 1 0 36 -35 77 -77z
m-80 42 c11 -13 10 -14 -4 -9 -9 3 -16 10 -16 15 0 13 6 11 20 -6z m-76 -120
c76 -8 141 -16 144 -19 16 -17 -21 -18 -139 -7 -152 14 -189 20 -189 32 0 12
19 11 184 -6z m221 -35 c10 -11 16 -20 13 -20 -3 0 -13 9 -23 20 -10 11 -16
20 -13 20 3 0 13 -9 23 -20z m252 -32 c-3 -8 -6 -5 -6 6 -1 11 2 17 5 13 3 -3
4 -12 1 -19z m-206 -25 c13 -16 12 -17 -3 -4 -17 13 -22 21 -14 21 2 0 10 -8
17 -17z m49 -64 c15 -28 5 -23 -15 7 -9 15 -12 23 -6 20 6 -4 16 -16 21 -27z"/>
<path d="M8875 3493 c-120 -16 -249 -81 -350 -175 -67 -63 -81 -82 -139 -201
-62 -125 -96 -212 -111 -284 -10 -50 12 -41 25 10 32 127 76 222 160 347 125
186 256 267 480 295 92 12 93 13 30 12 -36 0 -78 -2 -95 -4z"/>
<path d="M9098 3493 c12 -2 30 -2 40 0 9 3 -1 5 -23 4 -22 0 -30 -2 -17 -4z"/>
<path d="M9132 3459 c-59 -67 -270 -195 -377 -229 -22 -7 -44 -16 -50 -21 -20
-19 112 33 192 76 99 52 242 154 261 185 21 34 10 30 -26 -11z"/>
<path d="M8250 3480 c0 -5 5 -10 10 -10 6 0 10 5 10 10 0 6 -4 10 -10 10 -5 0
-10 -4 -10 -10z"/>
<path d="M7990 3275 c9 -15 8 -35 -5 -85 -10 -36 -17 -76 -18 -90 -1 -59 7
-130 16 -130 5 0 7 6 4 14 -3 7 0 19 6 25 9 9 9 14 -2 20 -9 6 -12 20 -9 39 3
19 1 29 -6 25 -5 -4 -7 1 -3 11 4 10 7 20 7 24 0 3 7 -3 15 -14 8 -10 15 -29
15 -41 0 -41 15 -24 16 20 1 23 -1 36 -3 30 -3 -7 -9 -13 -14 -13 -5 0 -4 9 3
20 16 25 28 8 28 -40 0 -31 -18 -80 -21 -55 0 6 -5 -3 -10 -19 -12 -42 -5 -43
20 -3 33 53 37 112 11 179 -11 31 -30 67 -41 80 -16 18 -18 19 -9 3z m33 -65
c3 -10 -1 -27 -8 -37 -12 -16 -14 -14 -12 19 2 41 12 50 20 18z"/>
<path d="M7931 3225 c0 -5 6 -30 13 -55 8 -25 15 -36 15 -25 -1 21 -27 98 -28
80z"/>
<path d="M2041 2870 c0 -33 1 -34 11 -12 8 17 8 26 0 34 -9 9 -12 4 -11 -22z"/>
<path d="M2050 2761 c0 -16 5 -33 10 -36 6 -4 10 6 10 24 0 16 -4 33 -10 36
-6 4 -10 -6 -10 -24z"/>
<path d="M5759 2054 c-67 -45 -143 -59 -286 -51 l-103 5 -7 -37 c-4 -20 -8
-109 -8 -198 0 -207 -5 -200 156 -213 163 -13 855 -22 979 -13 l105 8 3 39 c3
38 3 38 -25 32 -97 -22 -501 -31 -520 -12 -2 2 6 25 18 50 29 63 99 138 148
161 46 20 51 30 19 39 -43 11 -73 6 -109 -18 -26 -18 -40 -21 -52 -15 -25 14
-21 26 19 53 20 13 31 27 25 30 -12 8 -47 -8 -78 -37 -20 -17 -26 -18 -53 -7
-38 16 -35 28 15 60 34 23 36 25 15 28 -13 2 -37 -8 -61 -27 -33 -28 -41 -30
-63 -19 -15 6 -26 16 -26 22 0 10 38 39 85 64 20 11 20 11 -1 12 -12 0 -44
-15 -71 -34 -48 -33 -49 -33 -72 -15 -13 10 -27 16 -32 13 -18 -11 -49 7 -49
29 0 17 15 30 58 54 31 18 50 33 41 33 -10 0 -41 -16 -70 -36z m-49 -208 c0
-3 -4 -8 -10 -11 -5 -3 -10 -1 -10 4 0 6 5 11 10 11 6 0 10 -2 10 -4z m57 -21
c1 -15 0 -15 -3 -3 -3 9 -13 19 -22 22 -12 3 -12 4 3 3 12 -1 21 -10 22 -22z"/>
</g>
</svg>
